<svg width="50px" height="50px" viewBox="0 0 91 91" id="Layer_1" version="1.1" xml:space="preserve" xmlns="http://www.w3.org/2000/svg" xmlns:xlink="http://www.w3.org/1999/xlink">

<style type="text/css">
	.st0{fill:#1B1B19;}
</style>

<g>

<path class="st0" d="M41.2,48.2c7.4,6.6,14.2,13.7,20.9,21c5.5,6,10.9,14.3,18.6,17.4c1.2,0.5,2.8-0.8,2.7-2   c-0.7-8.3-7.6-15.7-12.7-21.9c-4.9-6.1-10.3-11.8-15.9-17.4c12-7.6,21.8-17.7,29.4-29.9C89.2,7.4,76.4-0.1,71.7,8   c-7.3,12.6-16.6,23.8-29.3,31.1C39.3,40.9,38.4,45.7,41.2,48.2z"/>

<path class="st0" d="M25.8,69.2c5.5,6,10.9,14.3,18.6,17.4c1.2,0.5,2.8-0.8,2.7-2c-0.7-8.3-7.6-15.7-12.7-21.9   c-4.9-6.1-10.3-11.8-15.9-17.4c12-7.6,21.8-17.7,29.4-29.9C52.9,7.4,40.1-0.1,35.4,8C28.1,20.6,18.9,31.8,6.1,39.1   c-3.1,1.8-4,6.6-1.2,9.1C12.3,54.8,19.2,61.9,25.8,69.2z"/>

</g>

</svg>
